<?xml version="1.0" encoding="UTF-8"?>
<svg width="30px" height="17px" viewBox="0 0 46 26" fill="#f44336" version="1.1" xmlns="http://www.w3.org/2000/svg" xmlns:xlink="http://www.w3.org/1999/xlink">
    <g id="Main" stroke="none" stroke-width="1" fill-rule="evenodd">
        <g id="Main-Page-/-HD" transform="translate(-1355.000000, -2154.000000)">
            <path d="M1389.03575,2155.08574 L1389.05236,2155.10235 L1399.90361,2166.18866 C1400.09611,2166.38533 1400.19976,2166.63636 1400.21457,2166.89158 L1400.21457,2166.9807 C1400.23184,2167.27845 1400.12819,2167.58189 1399.90361,2167.81134 L1389.05236,2178.89765 C1388.62888,2179.3303 1387.93485,2179.33774 1387.5022,2178.91426 C1387.49661,2178.90878 1387.49107,2178.90324 1387.48559,2178.89765 L1386.69728,2178.09226 C1386.2802,2177.66615 1386.2802,2176.98482 1386.69728,2176.55871 L1394.5,2168.58593 L1356.09619,2168.5865 C1355.49078,2168.5865 1355,2168.09572 1355,2167.49031 L1355,2166.32744 C1355,2165.72203 1355.49078,2165.23125 1356.09619,2165.23125 L1394.322,2165.23093 L1386.69728,2157.44129 C1386.2802,2157.01518 1386.2802,2156.33385 1386.69728,2155.90774 L1387.48559,2155.10235 C1387.90907,2154.6697 1388.6031,2154.66226 1389.03575,2155.08574 Z" id="Combined-Shape"></path>
        </g>
    </g>
</svg>
