<?xml version="1.0" encoding="UTF-8"?>
<svg width="24px" height="24px" viewBox="0 0 24 24" version="1.1" xmlns="http://www.w3.org/2000/svg" xmlns:xlink="http://www.w3.org/1999/xlink">
    <g id="Contacts" stroke="none" stroke-width="1" fill="none" fill-rule="evenodd">
        <g transform="translate(-340.000000, -660.000000)" fill="#000000" fill-rule="nonzero" id="Group-5">
            <g transform="translate(150.000000, 156.000000)">
                <g id="Group-4" transform="translate(46.000000, 64.000000)">
                    <g id="Group-2" transform="translate(0.000000, 394.000000)">
                        <g id="instagram" transform="translate(144.000000, 46.000000)">
                            <path d="M14.296875,12 C14.296875,13.2685547 13.2685547,14.296875 12,14.296875 C10.7314453,14.296875 9.703125,13.2685547 9.703125,12 C9.703125,10.7314453 10.7314453,9.703125 12,9.703125 C13.2685547,9.703125 14.296875,10.7314453 14.296875,12 Z" id="Path"></path>
                            <path d="M17.371582,7.93615725 C17.2611694,7.63696289 17.085022,7.36614989 16.8561401,7.14385987 C16.6338501,6.91497802 16.3632202,6.73883058 16.0638427,6.62841797 C15.8210449,6.53411864 15.4562988,6.421875 14.7844849,6.39129637 C14.0577393,6.3581543 13.8398438,6.35101317 12,6.35101317 C10.1599732,6.35101317 9.94207763,6.3579712 9.21551513,6.39111328 C8.54370117,6.421875 8.17877198,6.53411864 7.93615725,6.62841797 C7.6367798,6.73883058 7.3659668,6.91497802 7.14385988,7.14385987 C6.91497802,7.36614989 6.73883058,7.6367798 6.62823488,7.93615725 C6.53393555,8.17895508 6.42169191,8.54388427 6.39111328,9.21569822 C6.3579712,9.94226072 6.35083008,10.1601562 6.35083008,12.0001831 C6.35083008,13.8400268 6.3579712,14.0579224 6.39111328,14.784668 C6.42169191,15.4564819 6.53393555,15.821228 6.62823488,16.0640259 C6.73883058,16.3634033 6.91479492,16.6340332 7.14367678,16.8563232 C7.3659668,17.0852051 7.63659666,17.2613526 7.93597411,17.3717651 C8.17877198,17.4662475 8.54370117,17.5784912 9.21551513,17.6090698 C9.94207763,17.6422119 10.1597901,17.6491699 11.9998169,17.6491699 C13.8400268,17.6491699 14.0579224,17.6422119 14.7843018,17.6090698 C15.4561157,17.5784912 15.8210449,17.4662475 16.0638428,17.3717651 C16.6647949,17.1399536 17.1397705,16.664978 17.371582,16.0640259 C17.4658814,15.821228 17.578125,15.4564819 17.6088867,14.784668 C17.6420288,14.0579224 17.6489868,13.8400268 17.6489868,12.0001831 C17.6489868,10.1601562 17.6420288,9.94226072 17.6088867,9.21569822 C17.5783081,8.54388427 17.4660645,8.17895508 17.371582,7.93615725 L17.371582,7.93615725 Z M12,15.5383301 C10.0457153,15.5383301 8.46148683,13.9542847 8.46148683,12 C8.46148683,10.0457153 10.0457153,8.46166992 12,8.46166992 C13.9541016,8.46166992 15.5383301,10.0457153 15.5383301,12 C15.5383301,13.9542847 13.9541016,15.5383301 12,15.5383301 Z M15.6782227,9.14868164 C15.2215576,9.14868164 14.8513184,8.77844241 14.8513184,8.32177734 C14.8513184,7.86511228 15.2215576,7.49487305 15.6782227,7.49487305 C16.1348877,7.49487305 16.505127,7.86511228 16.505127,8.32177734 C16.5049439,8.77844241 16.1348877,9.14868164 15.6782227,9.14868164 Z" id="Shape"></path>
                            <path d="M21,0 C22.6568542,-3.04359188e-16 24,1.34314575 24,3 L24,21 C24,22.6568542 22.6568542,24 21,24 L3,24 C1.34314575,24 2.02906125e-16,22.6568542 0,21 L0,3 C-2.02906125e-16,1.34314575 1.34314575,3.04359188e-16 3,0 L21,0 Z M12.6796675,5.10986901 L11.3203325,5.10986855 C10.0553431,5.11204554 9.79372057,5.12200096 9.15911864,5.15093995 C8.42559816,5.18444822 7.92480469,5.30090334 7.48645022,5.47119141 C7.02667238,5.64422606 6.61010742,5.91540525 6.26605223,6.26605223 C5.91540525,6.61010742 5.64404297,7.02667238 5.47100831,7.48645022 C5.3007202,7.92480469 5.18426513,8.42559816 5.15093995,9.15911864 C5.12184283,9.79372057 5.11200242,10.0553431 5.10985973,11.3203325 L5.10986019,12.6796679 C5.11200582,13.9446603 5.1218678,14.2063044 5.15112305,14.8410645 C5.18444822,15.5744018 5.30108644,16.0753784 5.4713745,16.5135498 C5.64440916,16.9733276 5.91558839,17.3898926 6.26605223,17.7339478 C6.61029052,18.0845948 7.02667238,18.3557739 7.48663331,18.5288086 C7.92480469,18.6990967 8.42578125,18.8155518 9.15911864,18.84906 C9.79387874,18.877999 10.0553863,18.8879545 11.3204593,18.8901315 L12.6798506,18.8901315 C13.94484,18.8879545 14.2064625,18.877999 14.8410645,18.84906 C15.5744018,18.8155518 16.0753784,18.6990967 16.5135498,18.5288086 C17.4391479,18.1708374 18.1708374,17.4391479 18.5288086,16.5135498 C18.6990967,16.0751953 18.8157349,15.5744018 18.84906,14.8408814 C18.8781572,14.2062794 18.8879976,13.9446569 18.8901403,12.6796675 L18.8901407,11.3203325 C18.888001,10.0553431 18.8781821,9.79372057 18.8492432,9.15911864 C18.8157349,8.42559816 18.6992798,7.92480469 18.5288086,7.48645022 C18.355957,7.02667238 18.0845947,6.61029052 17.7341309,6.26605223 C17.3898926,5.91540525 16.9733276,5.64404297 16.5135498,5.47100831 C16.0751953,5.30090334 15.5744018,5.18444822 14.8408814,5.15112305 C14.2062794,5.12202592 13.9446569,5.11204895 12.6796675,5.10986901 Z" id="Shape"></path>
                        </g>
                    </g>
                </g>
            </g>
        </g>
    </g>
</svg>