<?xml version="1.0" encoding="UTF-8"?>
<svg width="24px" height="24px" viewBox="0 0 24 24" version="1.1" xmlns="http://www.w3.org/2000/svg" xmlns:xlink="http://www.w3.org/1999/xlink">
    <g id="Contacts" stroke="none" stroke-width="1" fill="none" fill-rule="evenodd">
        <g transform="translate(-196.000000, -660.000000)" fill="#000000" fill-rule="nonzero" id="Group-5">
            <g transform="translate(150.000000, 156.000000)">
                <g id="Group-4" transform="translate(46.000000, 64.000000)">
                    <g id="Group-2" transform="translate(0.000000, 394.000000)">
                        <g id="facebook" transform="translate(0.000000, 46.000000)">
                            <path d="M20.484375,0 L3.515625,0 C1.57727053,0 0,1.57727053 0,3.515625 L0,20.484375 C0,22.4227295 1.57727053,24 3.515625,24 L10.59375,24 L10.59375,15.515625 L7.78125,15.515625 L7.78125,11.296875 L10.59375,11.296875 L10.59375,8.4375 C10.59375,6.11114503 12.486145,4.21875 14.8125,4.21875 L19.078125,4.21875 L19.078125,8.4375 L14.8125,8.4375 L14.8125,11.296875 L19.078125,11.296875 L18.375,15.515625 L14.8125,15.515625 L14.8125,24 L20.484375,24 C22.4227295,24 24,22.4227295 24,20.484375 L24,3.515625 C24,1.57727053 22.4227295,0 20.484375,0 Z" id="Path"></path>
                        </g>
                    </g>
                </g>
            </g>
        </g>
    </g>
</svg>