<?xml version="1.0" encoding="UTF-8"?>
<svg width="24px" height="24px" viewBox="0 0 24 24" version="1.1" xmlns="http://www.w3.org/2000/svg" xmlns:xlink="http://www.w3.org/1999/xlink">
    <g id="Contacts" stroke="none" stroke-width="1" fill="none" fill-rule="evenodd">
        <g transform="translate(-292.000000, -660.000000)" fill="#000000" fill-rule="nonzero" id="Group-5">
            <g transform="translate(150.000000, 156.000000)">
                <g id="Group-4" transform="translate(46.000000, 64.000000)">
                    <g id="Group-2" transform="translate(0.000000, 394.000000)">
                        <g id="youtube" transform="translate(96.000000, 46.000000)">
                            <path d="M22,-8.03263706e-15 C23.1045695,-8.23554318e-15 24,0.8954305 24,2 L24,22 C24,23.1045695 23.1045695,24 22,24 L2,24 C0.8954305,24 1.3527075e-16,23.1045695 0,22 L0,2 C-1.3527075e-16,0.8954305 0.8954305,-7.82973093e-15 2,-8.03263706e-15 L22,-8.03263706e-15 Z M8.83739882,5.19195623 C8.44984867,4.9488535 8.04371241,4.93660266 7.61859597,5.15552273 C7.20622055,5.37405996 7,5.71427617 7,6.1755333 L7,6.1755333 L7,17.8341916 C7,18.2955763 7.20615487,18.6357925 7.61859597,18.8541384 C7.81857736,18.9512518 8.0123196,19 8.19969133,19 C8.44958597,19 8.66230838,18.93932 8.83739882,18.8178963 L8.83739882,18.8178963 L18.4376221,12.988599 C18.8124969,12.7823126 19,12.454092 19,12.0048944 C19,11.5555052 18.8125626,11.2274123 18.4376878,11.0213173 L18.4376878,11.0213173 Z" id="Shape"></path>
                        </g>
                    </g>
                </g>
            </g>
        </g>
    </g>
</svg>