<?xml version="1.0" encoding="UTF-8"?>
<svg width="24px" height="24px" viewBox="0 0 24 24" version="1.1" xmlns="http://www.w3.org/2000/svg" xmlns:xlink="http://www.w3.org/1999/xlink">
    <g id="Contacts" stroke="none" stroke-width="1" fill="none" fill-rule="evenodd">
        <g transform="translate(-244.000000, -660.000000)" fill="#000000" fill-rule="nonzero" id="Group-5">
            <g transform="translate(150.000000, 156.000000)">
                <g id="Group-4" transform="translate(46.000000, 64.000000)">
                    <g id="Group-2" transform="translate(0.000000, 394.000000)">
                        <g id="telegram" transform="translate(48.000000, 46.000000)">
                            <path d="M0,3 L0,21 C2.02906125e-16,22.6568542 1.34314575,24 3,24 L21,24 C22.6568542,24 24,22.6568542 24,21 L24,3 C24,1.34314575 22.6568542,-3.04359188e-16 21,0 L3,0 C1.34314575,3.04359188e-16 -2.02906125e-16,1.34314575 0,3 Z M20.2978813,5.31059341 L17.4781187,18.873811 C17.4117099,19.1940396 17.0362022,19.3391473 16.7712527,19.1466198 L12.922022,16.3520176 C12.6883516,16.1823297 12.3697055,16.1913495 12.1460044,16.3737495 L10.0118505,18.1134066 C9.7642022,18.315956 9.39096264,18.2030769 9.29612308,17.8980396 L7.81424176,13.1322725 L3.98568791,11.7034022 C3.59678242,11.5577143 3.59345934,11.0086681 3.98125714,10.8592879 L19.6937143,4.79783736 C20.0268132,4.66902857 20.3704615,4.96082637 20.2978813,5.31059341 Z" id="Shape"></path>
                            <path d="M16.2189828,7.6127069 L8.8817069,12.1316897 C8.60048276,12.3052241 8.46812069,12.6448448 8.55884483,12.9627931 L9.35213793,15.7502586 C9.40856897,15.9477414 9.69512069,15.927569 9.72258621,15.7235172 L9.92875862,14.1949138 C9.9677069,13.9071207 10.104931,13.6418276 10.3178276,13.4437759 L16.3731207,7.81505172 C16.4865,7.71005172 16.3507759,7.53175862 16.2189828,7.6127069 Z" id="Path"></path>
                        </g>
                    </g>
                </g>
            </g>
        </g>
    </g>
</svg>