<?xml version="1.0" encoding="UTF-8"?>
<svg viewBox="0 0 24 24" version="1.1" xmlns="http://www.w3.org/2000/svg" xmlns:xlink="http://www.w3.org/1999/xlink">
    <g id="Publications" stroke="none" stroke-width="1" fill="none" fill-rule="evenodd">
        <g id="Publications-(Article)-/-Mobile" transform="translate(-190.000000, -214.000000)" fill="#CA2025">
            <g id="Group" transform="translate(20.000000, 210.000000)">
                <g id="Elements/Get-PDF/Active" transform="translate(166.000000, 0.000000)">
                    <g id="Elements/Get-PDF">
                        <path d="M16,4 C22.627417,4 28,9.372583 28,16 C28,22.627417 22.627417,28 16,28 C9.372583,28 4,22.627417 4,16 C4,9.372583 9.372583,4 16,4 Z M21.5338028,13.4 L19.9022452,13.4 C19.5832774,13.4 19.4054341,13.6641991 19.4054341,13.9558267 L19.4054341,17.9654415 C19.4054341,18.3228977 19.6089364,18.5212682 19.8842839,18.5212682 C20.1579502,18.5212682 20.3623373,18.3228977 20.3623373,17.9654415 L20.3623373,16.8649364 L21.3491465,16.8649364 C21.6552848,16.8649364 21.8083539,16.6143631 21.8083539,16.3655594 C21.8083539,16.1218876 21.6552848,15.8798083 21.3491465,15.8798083 L20.3623373,15.8798083 L20.3623373,14.3842433 L21.5338028,14.3842433 L21.5338028,14.3842433 C21.8202986,14.3842433 21.9605382,14.1345548 21.9605382,13.8925641 C21.9605382,13.6419908 21.814282,13.4 21.5338028,13.4 Z M11.7034028,13.4 L10.5207889,13.4 C10.1864258,13.4 10,13.6205788 10,13.9558267 L10,17.9654415 C10,18.3228977 10.2137659,18.5212682 10.5010581,18.5212682 C10.7883502,18.5212682 11.0021161,18.3228977 11.0021161,17.9654415 L11.0021161,16.7947724 L11.7434839,16.7947724 C12.6584479,16.7947724 13.41353,16.1465733 13.41353,15.1041991 C13.4136184,14.0841217 12.6850802,13.4 11.7034028,13.4 Z M16.0191558,13.4 L14.8253935,13.4 C14.501294,13.4 14.2712479,13.6223484 14.2712479,13.952376 L14.2712479,17.9688922 C14.2712479,18.3784627 14.6021604,18.5067576 14.8390194,18.5067576 L16.0917972,18.5067576 C17.5745327,18.5067576 18.5536442,17.5310968 18.5536442,16.0251797 C18.5528479,14.4329954 17.631071,13.4 16.0191558,13.4 Z M16.0046452,14.3902599 C16.997471,14.3902599 17.4292498,15.0564203 17.4292498,15.9756313 C17.4292498,16.8359152 17.0050802,17.5165862 16.0764903,17.5165862 L15.3487484,17.5165862 L15.3487484,14.3902599 L16.0046452,14.3902599 Z M11.6837604,14.3415078 C12.1044793,14.3415078 12.372129,14.6698544 12.372129,15.098271 C12.3712442,15.5258912 12.1044793,15.8542378 11.6837604,15.8542378 L11.0022046,15.8542378 L11.0022046,14.3415078 L11.6837604,14.3415078 Z" id="Image"></path>
                    </g>
                </g>
            </g>
        </g>
    </g>
</svg>