<?xml version="1.0" encoding="UTF-8"?>
<svg viewBox="0 0 16 16" version="1.1" xmlns="http://www.w3.org/2000/svg" xmlns:xlink="http://www.w3.org/1999/xlink">
    <g id="Publications" stroke="none" stroke-width="1" fill="none" fill-rule="evenodd">
        <g id="Publications-(Article)-/-Mobile" transform="translate(-146.000000, -218.000000)" fill="#AAAAAA" fill-rule="nonzero">
            <g id="Group" transform="translate(20.000000, 210.000000)">
                <g id="Share-Widget">
                    <g id="CopyLink" transform="translate(118.000000, 0.000000)">
                        <g id="Icons/Link" transform="translate(8.000000, 8.000000)">
                            <path d="M5.8596,12.6942446 L5.05,13.4982446 C4.3482,14.1938446 3.2068,14.1944446 2.5054,13.4982446 C2.1682,13.1636446 1.983,12.7192446 1.983,12.2468446 C1.983,11.7744446 2.1684,11.3298446 2.5052,10.9952446 L5.4852,8.03864457 C6.1028,7.42624457 7.2646,6.52444457 8.1114,7.36424457 C8.5,7.75024457 9.1276,7.74764457 9.5134,7.35924457 C9.8994,6.97084457 9.897,6.34304457 9.5084,5.95744457 C8.069,4.52904457 5.9416,4.79304457 4.0888,6.63144457 L1.1086,9.58824457 C0.3936,10.2980446 0,11.2420446 0,12.2468446 C0,13.2516446 0.3936,14.1954446 1.1088,14.9052446 C1.8446,15.6352446 2.8108,16.0000446 3.7774,16.0000446 C4.7442,16.0000446 5.7108,15.6352446 6.447,14.9048446 L7.2572,14.1006446 C7.6456,13.7150446 7.6478,13.0874446 7.2618,12.6988446 C6.8764,12.3106446 6.2482,12.3084446 5.8596,12.6942446 Z M14.8908,1.20884457 C13.3448,-0.325155434 11.1832,-0.408355434 9.752,1.01164457 L8.7428,2.01344457 C8.3542,2.39924457 8.3518,3.02664457 8.7378,3.41524457 C9.1238,3.80384457 9.7514,3.80604457 10.14,3.42024457 L11.1488,2.41904457 C11.8902,1.68284457 12.861,1.98804457 13.4942,2.61624457 C13.8318,2.95084457 14.0172,3.39544457 14.0172,3.86784457 C14.0172,4.34044457 13.8316,4.78504457 13.4946,5.11964457 L10.3152,8.27364457 C8.8614,9.71604457 8.1794,9.03904457 7.8884,8.75024457 C7.4998,8.36444457 6.8724,8.36684457 6.4864,8.75524457 C6.1004,9.14364457 6.1028,9.77144457 6.4914,10.1570446 C7.1588,10.8194446 7.9206,11.1478446 8.7192,11.1478446 C9.697,11.1478446 10.7298,10.6554446 11.7118,9.68044457 L14.8912,6.52644457 C15.606,5.81664457 16,4.87244457 16,3.86764457 C16,2.86324457 15.606,1.91904457 14.8908,1.20884457 Z" id="Shape"></path>
                        </g>
                    </g>
                </g>
            </g>
        </g>
    </g>
</svg>
