<?xml version="1.0" encoding="UTF-8"?>
<svg viewBox="0 0 24 24" version="1.1" xmlns="http://www.w3.org/2000/svg" xmlns:xlink="http://www.w3.org/1999/xlink">
    <g id="Publications" stroke="none" stroke-width="1" fill="none" fill-rule="evenodd">
        <g id="Publications-/-HD-" transform="translate(-518.000000, -552.000000)">
            <g id="Publications/Big" transform="translate(150.000000, 245.000000)">
                <g id="Icons/PDF-Copy" transform="translate(368.000000, 307.000000)">
                    <g id="Facebook">
                        <rect id="Shape" x="0" y="0" width="24" height="24" rx="12"></rect>
                    </g>
                    <path d="M0.301649647,16.5 C0.217857659,16.5 0.146635538,16.4700003 0.0879811469,16.41 C0.0293267557,16.3499997 0,16.2771433 0,16.1914286 L0,7.82142857 C0,7.72714239 0.0272319874,7.6500003 0.0816967793,7.59 C0.136161571,7.5299997 0.20947846,7.5 0.301649647,7.5 L3.6700707,7.5 C4.68395375,7.5 5.47996569,7.74428327 6.0581304,8.23285714 C6.63629511,8.72143101 6.92537313,9.43285247 6.92537313,10.3671429 C6.92537313,11.2928618 6.63629511,11.993569 6.0581304,12.4692857 C5.47996569,12.9450024 4.68395375,13.1828571 3.6700707,13.1828571 L1.82246661,13.1828571 L1.82246661,16.1914286 C1.82246661,16.2857148 1.79313986,16.360714 1.73448547,16.4164286 C1.67583108,16.4721431 1.60041942,16.5 1.50824823,16.5 L0.301649647,16.5 Z M3.60722702,11.7428571 C4.09322055,11.7428571 4.46399453,11.6250012 4.71956009,11.3892857 C4.97512566,11.1535702 5.10290652,10.8085737 5.10290652,10.3542857 C5.10290652,9.9085692 4.97931519,9.56142981 4.73212883,9.31285714 C4.48494247,9.06428447 4.10997895,8.94 3.60722702,8.94 L1.79732914,8.94 L1.79732914,11.7428571 L3.60722702,11.7428571 Z M8.9897879,16.5 C8.90599592,16.5 8.83477379,16.4700003 8.7761194,16.41 C8.71746501,16.3499997 8.68813826,16.2771433 8.68813826,16.1914286 L8.68813826,7.82142857 C8.68813826,7.72714239 8.71537024,7.6500003 8.76983504,7.59 C8.82429983,7.5299997 8.89761672,7.5 8.9897879,7.5 L12.0565593,7.5 C14.4460275,7.5 15.7040581,8.58928435 15.8306852,10.7678846 L15.8586018,11.6207149 C15.8627913,11.7878573 15.8648861,11.9142853 15.8648861,12 L15.8397486,12.99 L15.8397486,12.99 C15.8062318,14.190006 15.4899218,15.0749971 14.8908091,15.645 C14.2916964,16.2150028 13.3679036,16.5 12.119403,16.5 L8.9897879,16.5 Z M12.0565593,15.0085714 C12.7520328,15.0085714 13.2547772,14.8500016 13.5648075,14.5328571 C13.8403901,14.250951 14.0001102,13.8031243 14.0439712,13.189366 L14.0738414,12.3246421 C14.0780309,12.1639282 14.0801257,12.0514289 14.0801257,11.9871429 L14.0549882,11.0357143 L14.0549882,11.0357143 C14.0382298,10.3328536 13.8664588,9.81643022 13.5396701,9.48642857 C13.2128813,9.15642692 12.6975683,8.99142857 11.9937156,8.99142857 L10.4603299,8.99142857 L10.4603299,15.0085714 L12.0565593,15.0085714 Z M18.2183818,16.5 C18.1345898,16.5 18.0633677,16.4700003 18.0047133,16.41 C17.9460589,16.3499997 17.9167321,16.2771433 17.9167321,16.1914286 L17.9167321,7.82142857 C17.9167321,7.72714239 17.9439641,7.6500003 17.9984289,7.59 C18.0528937,7.5299997 18.1262106,7.5 18.2183818,7.5 L23.6857816,7.5 C23.7779528,7.5 23.8533645,7.5299997 23.9120189,7.59 C23.9706732,7.6500003 24,7.72714239 24,7.82142857 L24,8.74714286 C24,8.83285757 23.9706732,8.90571399 23.9120189,8.96571429 C23.8533645,9.02571459 23.7779528,9.05571429 23.6857816,9.05571429 L19.6637863,9.05571429 L19.6637863,11.4728571 L23.4344069,11.4728571 C23.5265781,11.4728571 23.6019898,11.5028568 23.6606441,11.5628571 C23.7192985,11.6228574 23.7486253,11.6957139 23.7486253,11.7814286 L23.7486253,12.7071429 C23.7486253,12.7928576 23.7192985,12.865714 23.6606441,12.9257143 C23.6019898,12.9857146 23.5265781,13.0157143 23.4344069,13.0157143 L19.6637863,13.0157143 L19.6637863,16.1914286 C19.6637863,16.2771433 19.6344596,16.3499997 19.5758052,16.41 C19.5171508,16.4700003 19.4417391,16.5 19.3495679,16.5 L18.2183818,16.5 Z" id="PDF" fill="#676767" fill-rule="nonzero"></path>
                </g>
            </g>
        </g>
    </g>
</svg>