<?xml version="1.0" encoding="UTF-8"?>
<svg viewBox="0 0 16 16" version="1.1" xmlns="http://www.w3.org/2000/svg" xmlns:xlink="http://www.w3.org/1999/xlink">
    <g id="Publications" stroke="none" stroke-width="1" fill="none" fill-rule="evenodd">
        <g id="Publications-(Article)-/-Mobile" transform="translate(-232.000000, -2798.000000)" fill="#909090" fill-rule="nonzero">
            <g id="Footer/Mobile" transform="translate(0.000000, 2764.000000)">
                <g id="Social">
                    <g>
                        <g id="Override/Footer/Social" transform="translate(222.000000, 24.000000)">
                            <g id="Icons/rrs" transform="translate(10.000000, 10.000000)">
                                <g id="002-rss-symbol" transform="translate(2.000000, 2.000000)">
                                    <path d="M2.71442227,9.25678886 C3.00451044,9.54657077 3.18091879,9.93961949 3.18200464,10.3772715 C3.18089095,10.8140325 3.00451044,11.2072204 2.71550812,11.4956937 L2.71439443,11.4962227 C2.42489095,11.7844455 2.02939211,11.9606589 1.58962413,11.9606589 C1.15041299,11.9606589 0.755916473,11.7839165 0.466468677,11.4957216 C0.17774478,11.2072204 0,10.8145336 0,10.3772715 C0,9.93961949 0.17774478,9.54565197 0.466468677,9.25653828 L0.466468677,9.25678886 C0.756055684,8.96834339 1.1505522,8.79084919 1.58962413,8.79084919 C2.02941995,8.79084919 2.424529,8.96884455 2.71442227,9.25678886 Z M0.00128074246,4.07217633 L0.00128074246,6.35883063 C1.49412529,6.35974942 2.90600464,6.94619026 3.96261717,8.00441763 C5.0190348,9.05930394 5.60299768,10.4733271 5.60539211,11.9712947 L5.60617169,11.9712947 L5.60617169,11.9754432 L7.90223666,11.9754432 C7.90042691,9.79726218 7.01501624,7.8241949 5.58356381,6.3917123 C4.15188863,4.95942459 2.17962877,4.0735406 0.00128074246,4.07217633 Z M0.00545707657,0 L0.00545707657,2.2855406 C5.34172622,2.28943852 9.67962877,6.63405104 9.68324826,11.9754153 L11.9754153,11.9754153 C11.9738561,8.67413457 10.6320835,5.68323898 8.46361949,3.51327146 C6.29437587,1.34405568 3.30545708,0.0014199536 0.00545707657,0 Z" id="RSS"></path>
                                </g>
                            </g>
                        </g>
                    </g>
                </g>
            </g>
        </g>
    </g>
</svg>