<?xml version="1.0" encoding="UTF-8"?>
<svg viewBox="0 0 16 16" version="1.1" xmlns="http://www.w3.org/2000/svg" xmlns:xlink="http://www.w3.org/1999/xlink">
    <g id="Publications" stroke="none" stroke-width="1" fill="none" fill-rule="evenodd">
        <g id="Publications-(Article)-/-Mobile" transform="translate(-70.000000, -218.000000)" fill="#AAAAAA" fill-rule="nonzero">
            <g id="Group" transform="translate(20.000000, 210.000000)">
                <g id="Share-Widget">
                    <g id="Twitter" transform="translate(42.000000, 0.000000)">
                        <g id="Icons/Twitter" transform="translate(8.000000, 8.000000)">
                            <path d="M16,3.51519209 C15.4118101,3.77257331 14.7787995,3.94618574 14.1146093,4.0238797 C14.7927654,3.62421941 15.3127499,2.99115752 15.5579644,2.23595943 C14.9236547,2.60652445 14.2214644,2.8754159 13.4734791,3.02057251 C12.874896,2.39262627 12.0216796,2 11.0775227,2 C9.2648844,2 7.79522157,3.44677025 7.79522157,5.23149323 C7.79522157,5.48439826 7.82412764,5.73090873 7.88031586,5.96782735 C5.15210198,5.83290203 2.73308568,4.54663536 1.11402066,2.59149723 C0.831455656,3.06853175 0.669711548,3.62357996 0.669711548,4.2163561 C0.669711548,5.33732328 1.24913221,6.32656242 2.12995554,6.90590998 C1.59210767,6.88896438 1.08576416,6.74348804 0.643078984,6.50145376 C0.642754197,6.51488235 0.642754197,6.52863066 0.642754197,6.54237898 C0.642754197,8.1077684 1.77431338,9.41353849 3.27613016,9.71088575 C3.00071047,9.78442324 2.71067535,9.82406954 2.4112214,9.82406954 C2.19946004,9.82406954 1.99386964,9.80392666 1.79347583,9.765879 C2.21147717,11.0495879 3.42358362,11.9841535 4.85979335,12.0100515 C3.73635386,12.8768347 2.3212553,13.3935155 0.783062339,13.3935155 C0.518360636,13.3935155 0.256906806,13.3781686 0,13.3481141 C1.45309867,14.2654144 3.17836916,14.8 5.03193066,14.8 C11.0700526,14.8 14.3715161,9.87618524 14.3715161,5.60589499 C14.3715161,5.46585402 14.3685931,5.32613279 14.3624221,5.18737073 C15.0035524,4.73271719 15.5602379,4.16328121 16,3.51519209 Z" id="Path"></path>
                        </g>
                    </g>
                </g>
            </g>
        </g>
    </g>
</svg>
