<?xml version="1.0" encoding="UTF-8"?>
<svg viewBox="0 0 20 20" version="1.1" xmlns="http://www.w3.org/2000/svg" xmlns:xlink="http://www.w3.org/1999/xlink">
    <g id="Main" stroke="none" stroke-width="1" fill="none" fill-rule="evenodd">
        <g id="Main-Page-/-HD" transform="translate(-1256.000000, -38.000000)">
            <g id="Header/Main/Search">
                <g id="Button2">
                    <g transform="translate(1242.000000, 24.000000)">
                        <g id="Icons" transform="translate(12.000000, 12.000000)">
                            <polygon id="Path" points="0 0 24 0 24 24 0 24"></polygon>
                            <path d="M12,2 C6.48,2 2,6.48 2,12 C2,17.52 6.48,22 12,22 C17.52,22 22,17.52 22,12 C22,6.48 17.52,2 12,2 Z M18.36,16.83 C16.93,15.09 13.46,14.5 12,14.5 C10.54,14.5 7.07,15.09 5.64,16.83 C4.62,15.49 4,13.82 4,12 C4,7.59 7.59,4 12,4 C16.41,4 20,7.59 20,12 C20,13.82 19.38,15.49 18.36,16.83 L18.36,16.83 Z M12,6 C10.06,6 8.5,7.56 8.5,9.5 C8.5,11.44 10.06,13 12,13 C13.94,13 15.5,11.44 15.5,9.5 C15.5,7.56 13.94,6 12,6 Z" id="Shape" fill-rule="nonzero"></path>
                        </g>
                    </g>
                </g>
            </g>
        </g>
    </g>
</svg>