<?xml version="1.0" encoding="UTF-8"?>
<svg width="32px" height="32px" viewBox="0 0 32 32" version="1.1" xmlns="http://www.w3.org/2000/svg" xmlns:xlink="http://www.w3.org/1999/xlink">
    <!-- Generator: sketchtool 59 (101010) - https://sketch.com -->
    <title>ABED84D7-39CA-4BD1-AA1C-9D2A36A57034</title>
    <desc>Created with sketchtool.</desc>
    <defs>
        <circle id="path-1" cx="16" cy="16" r="16"></circle>
    </defs>
    <g id="Profile" stroke="none" stroke-width="1" fill="none" fill-rule="evenodd">
        <g transform="translate(-400.000000, -551.000000)" id="Group-4">
            <g transform="translate(376.000000, 535.000000)">
                <g id="Group-3" transform="translate(24.000000, 16.000000)">
                    <mask id="mask-2" fill="white">
                        <use xlink:href="#path-1"></use>
                    </mask>
                    <use id="Mask" fill="#EEEEEE" xlink:href="#path-1"></use>
                    <polygon id="Triangle" fill="#C2C2C2" mask="url(#mask-2)" transform="translate(15.500000, 7.000000) scale(1, -1) translate(-15.500000, -7.000000) " points="15.5 -2 26 16 5 16"></polygon>
                    <g id="star" mask="url(#mask-2)" fill="#D8D8D8" fill-rule="nonzero">
                        <g transform="translate(8.000000, 8.000000)" id="Path">
                            <path d="M8.37830946,0.247069852 L10.4134901,4.98257535 L15.6238153,5.42261806 C15.9851872,5.45329994 16.1321998,5.89657232 15.8578857,6.12991607 L11.9057916,9.49604095 L13.0901058,14.5036463 C13.1722357,14.8516433 12.7886888,15.125358 12.4782375,14.9404593 L8.00051161,12.2856695 L3.52278572,14.9404593 C3.21151314,15.1245506 2.82878749,14.8508359 2.91091745,14.5036463 L4.0952316,9.49604095 L0.142316213,6.12910865 C-0.131997882,5.89576491 0.0141934624,5.45249252 0.376386624,5.42181065 L5.58671183,4.98176794 L7.62189245,0.247069852 C7.763156,-0.0823566174 8.23704592,-0.0823566174 8.37830946,0.247069852 Z"></path>
                        </g>
                    </g>
                </g>
            </g>
        </g>
    </g>
</svg>